<mxfile host="app.diagrams.net" modified="2021-11-16T09:07:09.670Z" agent="5.0 (Windows NT 10.0; Win64; x64) AppleWebKit/537.36 (KHTML, like Gecko) Chrome/96.0.4664.45 Safari/537.36" etag="-cuYcsqsgTJL-ktzJlH4" version="15.7.4" type="github">
  <diagram id="_DB5nOmFj4IXyf6H6gbR" name="Page-1">
    <mxGraphModel dx="3910" dy="2300" grid="1" gridSize="10" guides="1" tooltips="1" connect="1" arrows="1" fold="1" page="1" pageScale="1" pageWidth="827" pageHeight="1169" math="0" shadow="0">
      <root>
        <mxCell id="0" />
        <mxCell id="1" parent="0" />
        <mxCell id="kM_UuX8u9onz2_vPSyeQ-3" value="" style="edgeStyle=orthogonalEdgeStyle;rounded=0;orthogonalLoop=1;jettySize=auto;html=1;" edge="1" parent="1" source="kM_UuX8u9onz2_vPSyeQ-1" target="kM_UuX8u9onz2_vPSyeQ-2">
          <mxGeometry relative="1" as="geometry" />
        </mxCell>
        <mxCell id="kM_UuX8u9onz2_vPSyeQ-1" value="Start" style="ellipse;whiteSpace=wrap;html=1;" vertex="1" parent="1">
          <mxGeometry x="330" y="20" width="120" height="80" as="geometry" />
        </mxCell>
        <mxCell id="kM_UuX8u9onz2_vPSyeQ-5" value="" style="edgeStyle=orthogonalEdgeStyle;rounded=0;orthogonalLoop=1;jettySize=auto;html=1;" edge="1" parent="1" source="kM_UuX8u9onz2_vPSyeQ-2" target="kM_UuX8u9onz2_vPSyeQ-4">
          <mxGeometry relative="1" as="geometry" />
        </mxCell>
        <mxCell id="kM_UuX8u9onz2_vPSyeQ-2" value="Input Process" style="shape=parallelogram;perimeter=parallelogramPerimeter;whiteSpace=wrap;html=1;fixedSize=1;" vertex="1" parent="1">
          <mxGeometry x="330" y="190" width="120" height="60" as="geometry" />
        </mxCell>
        <mxCell id="kM_UuX8u9onz2_vPSyeQ-7" value="" style="edgeStyle=orthogonalEdgeStyle;rounded=0;orthogonalLoop=1;jettySize=auto;html=1;" edge="1" parent="1" source="kM_UuX8u9onz2_vPSyeQ-4" target="kM_UuX8u9onz2_vPSyeQ-6">
          <mxGeometry relative="1" as="geometry" />
        </mxCell>
        <mxCell id="kM_UuX8u9onz2_vPSyeQ-4" value="Queue.push(Process(Ready))&lt;br&gt;P=Queue.font()" style="whiteSpace=wrap;html=1;" vertex="1" parent="1">
          <mxGeometry x="280" y="330" width="220" height="60" as="geometry" />
        </mxCell>
        <mxCell id="kM_UuX8u9onz2_vPSyeQ-9" value="" style="edgeStyle=orthogonalEdgeStyle;rounded=0;orthogonalLoop=1;jettySize=auto;html=1;" edge="1" parent="1" source="kM_UuX8u9onz2_vPSyeQ-6" target="kM_UuX8u9onz2_vPSyeQ-8">
          <mxGeometry relative="1" as="geometry" />
        </mxCell>
        <mxCell id="kM_UuX8u9onz2_vPSyeQ-36" style="edgeStyle=orthogonalEdgeStyle;rounded=0;orthogonalLoop=1;jettySize=auto;html=1;" edge="1" parent="1" source="kM_UuX8u9onz2_vPSyeQ-6" target="kM_UuX8u9onz2_vPSyeQ-35">
          <mxGeometry relative="1" as="geometry" />
        </mxCell>
        <mxCell id="kM_UuX8u9onz2_vPSyeQ-6" value="P=Min[Queue(i).Burst,...]&lt;br&gt;&amp;amp;&amp;amp;&lt;br&gt;Queue.size()!=0" style="rhombus;whiteSpace=wrap;html=1;" vertex="1" parent="1">
          <mxGeometry x="280" y="460" width="220" height="110" as="geometry" />
        </mxCell>
        <mxCell id="kM_UuX8u9onz2_vPSyeQ-11" value="" style="edgeStyle=orthogonalEdgeStyle;rounded=0;orthogonalLoop=1;jettySize=auto;html=1;" edge="1" parent="1" source="kM_UuX8u9onz2_vPSyeQ-8" target="kM_UuX8u9onz2_vPSyeQ-10">
          <mxGeometry relative="1" as="geometry">
            <Array as="points">
              <mxPoint x="850" y="515" />
              <mxPoint x="850" y="515" />
            </Array>
          </mxGeometry>
        </mxCell>
        <mxCell id="kM_UuX8u9onz2_vPSyeQ-8" value="index=0, count=P.Burst" style="whiteSpace=wrap;html=1;" vertex="1" parent="1">
          <mxGeometry x="560" y="485" width="190" height="60" as="geometry" />
        </mxCell>
        <mxCell id="kM_UuX8u9onz2_vPSyeQ-13" value="" style="edgeStyle=orthogonalEdgeStyle;rounded=0;orthogonalLoop=1;jettySize=auto;html=1;" edge="1" parent="1" source="kM_UuX8u9onz2_vPSyeQ-10" target="kM_UuX8u9onz2_vPSyeQ-12">
          <mxGeometry relative="1" as="geometry" />
        </mxCell>
        <mxCell id="kM_UuX8u9onz2_vPSyeQ-17" style="edgeStyle=orthogonalEdgeStyle;rounded=0;orthogonalLoop=1;jettySize=auto;html=1;" edge="1" parent="1" source="kM_UuX8u9onz2_vPSyeQ-10">
          <mxGeometry relative="1" as="geometry">
            <mxPoint x="892.5" y="360" as="targetPoint" />
          </mxGeometry>
        </mxCell>
        <mxCell id="kM_UuX8u9onz2_vPSyeQ-10" value="count&amp;gt;Min[Queue(i).Burst,...]&lt;br&gt;||&lt;br&gt;count=0" style="rhombus;whiteSpace=wrap;html=1;" vertex="1" parent="1">
          <mxGeometry x="772.5" y="455" width="240" height="120" as="geometry" />
        </mxCell>
        <mxCell id="kM_UuX8u9onz2_vPSyeQ-16" style="edgeStyle=orthogonalEdgeStyle;rounded=0;orthogonalLoop=1;jettySize=auto;html=1;entryX=0.5;entryY=1;entryDx=0;entryDy=0;" edge="1" parent="1" source="kM_UuX8u9onz2_vPSyeQ-12" target="kM_UuX8u9onz2_vPSyeQ-10">
          <mxGeometry relative="1" as="geometry">
            <Array as="points">
              <mxPoint x="1158" y="595" />
              <mxPoint x="893" y="595" />
            </Array>
          </mxGeometry>
        </mxCell>
        <mxCell id="kM_UuX8u9onz2_vPSyeQ-12" value="index++;&lt;br&gt;count--;" style="whiteSpace=wrap;html=1;" vertex="1" parent="1">
          <mxGeometry x="1097.5" y="485" width="120" height="60" as="geometry" />
        </mxCell>
        <mxCell id="kM_UuX8u9onz2_vPSyeQ-14" value="True" style="text;html=1;align=center;verticalAlign=middle;resizable=0;points=[];autosize=1;strokeColor=none;fillColor=none;" vertex="1" parent="1">
          <mxGeometry x="510" y="500" width="40" height="20" as="geometry" />
        </mxCell>
        <mxCell id="kM_UuX8u9onz2_vPSyeQ-15" value="Flase" style="text;html=1;align=center;verticalAlign=middle;resizable=0;points=[];autosize=1;strokeColor=none;fillColor=none;" vertex="1" parent="1">
          <mxGeometry x="1040" y="500" width="40" height="20" as="geometry" />
        </mxCell>
        <mxCell id="kM_UuX8u9onz2_vPSyeQ-18" value="True" style="text;html=1;align=center;verticalAlign=middle;resizable=0;points=[];autosize=1;strokeColor=none;fillColor=none;rotation=-90;" vertex="1" parent="1">
          <mxGeometry x="860" y="420" width="40" height="20" as="geometry" />
        </mxCell>
        <mxCell id="kM_UuX8u9onz2_vPSyeQ-25" style="edgeStyle=orthogonalEdgeStyle;rounded=0;orthogonalLoop=1;jettySize=auto;html=1;" edge="1" parent="1" source="kM_UuX8u9onz2_vPSyeQ-24">
          <mxGeometry relative="1" as="geometry">
            <mxPoint x="1040" y="320" as="targetPoint" />
          </mxGeometry>
        </mxCell>
        <mxCell id="kM_UuX8u9onz2_vPSyeQ-29" style="edgeStyle=orthogonalEdgeStyle;rounded=0;orthogonalLoop=1;jettySize=auto;html=1;" edge="1" parent="1" source="kM_UuX8u9onz2_vPSyeQ-24">
          <mxGeometry relative="1" as="geometry">
            <mxPoint x="760" y="320" as="targetPoint" />
          </mxGeometry>
        </mxCell>
        <mxCell id="kM_UuX8u9onz2_vPSyeQ-24" value="count=0" style="rhombus;whiteSpace=wrap;html=1;" vertex="1" parent="1">
          <mxGeometry x="807.5" y="280" width="170" height="80" as="geometry" />
        </mxCell>
        <mxCell id="kM_UuX8u9onz2_vPSyeQ-28" style="edgeStyle=orthogonalEdgeStyle;rounded=0;orthogonalLoop=1;jettySize=auto;html=1;entryX=1;entryY=0.5;entryDx=0;entryDy=0;" edge="1" parent="1" source="kM_UuX8u9onz2_vPSyeQ-26" target="kM_UuX8u9onz2_vPSyeQ-4">
          <mxGeometry relative="1" as="geometry">
            <mxPoint x="500" y="220" as="targetPoint" />
            <Array as="points">
              <mxPoint x="1100" y="220" />
              <mxPoint x="550" y="220" />
              <mxPoint x="550" y="360" />
            </Array>
          </mxGeometry>
        </mxCell>
        <mxCell id="kM_UuX8u9onz2_vPSyeQ-26" value="Run(P)&lt;br&gt;Terminated(P)&lt;br&gt;Queue.pop()" style="whiteSpace=wrap;html=1;" vertex="1" parent="1">
          <mxGeometry x="1040" y="290" width="120" height="60" as="geometry" />
        </mxCell>
        <mxCell id="kM_UuX8u9onz2_vPSyeQ-27" value="True" style="text;html=1;align=center;verticalAlign=middle;resizable=0;points=[];autosize=1;strokeColor=none;fillColor=none;" vertex="1" parent="1">
          <mxGeometry x="980" y="300" width="40" height="20" as="geometry" />
        </mxCell>
        <mxCell id="kM_UuX8u9onz2_vPSyeQ-32" style="edgeStyle=orthogonalEdgeStyle;rounded=0;orthogonalLoop=1;jettySize=auto;html=1;exitX=0;exitY=0.5;exitDx=0;exitDy=0;entryX=1;entryY=0.75;entryDx=0;entryDy=0;" edge="1" parent="1" source="kM_UuX8u9onz2_vPSyeQ-30" target="kM_UuX8u9onz2_vPSyeQ-4">
          <mxGeometry relative="1" as="geometry" />
        </mxCell>
        <mxCell id="kM_UuX8u9onz2_vPSyeQ-30" value="Run(P, index)&lt;br&gt;Ready(P)&lt;br&gt;Queue.pop()&lt;br&gt;Queue.push(P)" style="whiteSpace=wrap;html=1;" vertex="1" parent="1">
          <mxGeometry x="640" y="290" width="120" height="60" as="geometry" />
        </mxCell>
        <mxCell id="kM_UuX8u9onz2_vPSyeQ-31" value="False" style="text;html=1;align=center;verticalAlign=middle;resizable=0;points=[];autosize=1;strokeColor=none;fillColor=none;" vertex="1" parent="1">
          <mxGeometry x="770" y="300" width="40" height="20" as="geometry" />
        </mxCell>
        <mxCell id="kM_UuX8u9onz2_vPSyeQ-41" style="edgeStyle=orthogonalEdgeStyle;rounded=0;orthogonalLoop=1;jettySize=auto;html=1;entryX=0;entryY=0.5;entryDx=0;entryDy=0;" edge="1" parent="1" source="kM_UuX8u9onz2_vPSyeQ-33" target="kM_UuX8u9onz2_vPSyeQ-2">
          <mxGeometry relative="1" as="geometry">
            <Array as="points">
              <mxPoint x="210" y="220" />
            </Array>
          </mxGeometry>
        </mxCell>
        <mxCell id="kM_UuX8u9onz2_vPSyeQ-33" value="Queue.pop()&lt;br&gt;Queue.push(P)" style="whiteSpace=wrap;html=1;" vertex="1" parent="1">
          <mxGeometry x="150" y="650" width="120" height="60" as="geometry" />
        </mxCell>
        <mxCell id="kM_UuX8u9onz2_vPSyeQ-40" style="edgeStyle=orthogonalEdgeStyle;rounded=0;orthogonalLoop=1;jettySize=auto;html=1;exitX=0;exitY=0.5;exitDx=0;exitDy=0;entryX=1;entryY=0.5;entryDx=0;entryDy=0;" edge="1" parent="1" source="kM_UuX8u9onz2_vPSyeQ-35" target="kM_UuX8u9onz2_vPSyeQ-33">
          <mxGeometry relative="1" as="geometry" />
        </mxCell>
        <mxCell id="kM_UuX8u9onz2_vPSyeQ-43" style="edgeStyle=orthogonalEdgeStyle;rounded=0;orthogonalLoop=1;jettySize=auto;html=1;" edge="1" parent="1" source="kM_UuX8u9onz2_vPSyeQ-35">
          <mxGeometry relative="1" as="geometry">
            <mxPoint x="390" y="790" as="targetPoint" />
          </mxGeometry>
        </mxCell>
        <mxCell id="kM_UuX8u9onz2_vPSyeQ-35" value="Queue.size=0" style="rhombus;whiteSpace=wrap;html=1;" vertex="1" parent="1">
          <mxGeometry x="302.5" y="640" width="175" height="80" as="geometry" />
        </mxCell>
        <mxCell id="kM_UuX8u9onz2_vPSyeQ-37" value="False" style="text;html=1;align=center;verticalAlign=middle;resizable=0;points=[];autosize=1;strokeColor=none;fillColor=none;rotation=90;" vertex="1" parent="1">
          <mxGeometry x="390" y="580" width="40" height="20" as="geometry" />
        </mxCell>
        <mxCell id="kM_UuX8u9onz2_vPSyeQ-42" value="False" style="text;html=1;align=center;verticalAlign=middle;resizable=0;points=[];autosize=1;strokeColor=none;fillColor=none;" vertex="1" parent="1">
          <mxGeometry x="280" y="650" width="40" height="20" as="geometry" />
        </mxCell>
        <mxCell id="kM_UuX8u9onz2_vPSyeQ-44" value="End" style="ellipse;whiteSpace=wrap;html=1;" vertex="1" parent="1">
          <mxGeometry x="330" y="790" width="120" height="60" as="geometry" />
        </mxCell>
        <mxCell id="kM_UuX8u9onz2_vPSyeQ-45" value="True" style="text;html=1;align=center;verticalAlign=middle;resizable=0;points=[];autosize=1;strokeColor=none;fillColor=none;rotation=90;" vertex="1" parent="1">
          <mxGeometry x="380" y="730" width="40" height="20" as="geometry" />
        </mxCell>
        <mxCell id="kM_UuX8u9onz2_vPSyeQ-47" value="SRT" style="text;html=1;align=center;verticalAlign=middle;resizable=0;points=[];autosize=1;strokeColor=none;fillColor=none;fontSize=62;" vertex="1" parent="1">
          <mxGeometry x="570" y="55" width="140" height="80" as="geometry" />
        </mxCell>
      </root>
    </mxGraphModel>
  </diagram>
</mxfile>
